# xmcd CD database file
#
# Track frame offsets:
#	150
#	2725
#	24787
#	48337
#
# Disc length: 968 seconds
#
# Revision: 1
# Processed by: cddbd v1.5.1PL2 Copyright (c) Steve Scherf et al.
# Submitted via: CDex 1.51
#
DISCID=1f03c604
DTITLE=AH - Introduction/Starlets Crowd/Sad Sugar/Amazing Grace
DYEAR=1998
DGENRE=Rock
TTITLE0=Introduction
TTITLE1=Starlets Crowd
TTITLE2=Sad Sugar
TTITLE3=Amazing Grace (Dora-Ton3521mix)
EXTD=YEAR: 1998
EXTT0=
EXTT1=
EXTT2=
EXTT3=
PLAYORDER=
